<mxfile host="app.diagrams.net" modified="2021-06-15T15:48:50.047Z" agent="5.0 (Windows NT 10.0; Win64; x64) AppleWebKit/537.36 (KHTML, like Gecko) Chrome/90.0.4430.212 Safari/537.36 OPR/76.0.4017.177" etag="QsH2UqY1LLUy1LKTTV2p" version="14.7.7" type="github">
  <diagram id="XmYXb6q1sJxBOcwfVzE4" name="Page-1">
    <mxGraphModel dx="2010" dy="556" grid="1" gridSize="10" guides="1" tooltips="1" connect="1" arrows="1" fold="1" page="1" pageScale="1" pageWidth="850" pageHeight="1100" math="0" shadow="0">
      <root>
        <mxCell id="0" />
        <mxCell id="1" parent="0" />
        <mxCell id="FBqpnrmvN5RfIPoNUzqK-1" value="&lt;b&gt;&lt;u&gt;WFM&amp;nbsp;&lt;br&gt;(Fleet/Resource Management)&lt;br&gt;&lt;br&gt;&amp;nbsp;FLOW DIAGRAM&lt;/u&gt;&lt;/b&gt;" style="text;html=1;strokeColor=none;fillColor=none;align=center;verticalAlign=middle;whiteSpace=wrap;rounded=0;" parent="1" vertex="1">
          <mxGeometry x="160" y="60" width="290" height="20" as="geometry" />
        </mxCell>
        <mxCell id="FBqpnrmvN5RfIPoNUzqK-28" style="edgeStyle=orthogonalEdgeStyle;rounded=0;orthogonalLoop=1;jettySize=auto;html=1;" parent="1" source="FBqpnrmvN5RfIPoNUzqK-2" target="FBqpnrmvN5RfIPoNUzqK-4" edge="1">
          <mxGeometry relative="1" as="geometry" />
        </mxCell>
        <mxCell id="FBqpnrmvN5RfIPoNUzqK-2" value="START" style="rounded=1;whiteSpace=wrap;html=1;fillColor=#f5f5f5;strokeColor=#666666;fontColor=#333333;" parent="1" vertex="1">
          <mxGeometry x="120" y="370" width="40" height="40" as="geometry" />
        </mxCell>
        <mxCell id="FBqpnrmvN5RfIPoNUzqK-4" value="Number Plate Detection&lt;br&gt;(Yolov5)" style="whiteSpace=wrap;html=1;aspect=fixed;fillColor=#f8cecc;strokeColor=#b85450;" parent="1" vertex="1">
          <mxGeometry x="180" y="350" width="80" height="80" as="geometry" />
        </mxCell>
        <mxCell id="Kyf35Kcozfyy5u9kXsoH-28" value="" style="edgeStyle=orthogonalEdgeStyle;rounded=0;orthogonalLoop=1;jettySize=auto;html=1;" parent="1" source="Kyf35Kcozfyy5u9kXsoH-27" target="FBqpnrmvN5RfIPoNUzqK-2" edge="1">
          <mxGeometry relative="1" as="geometry" />
        </mxCell>
        <mxCell id="XKVxcPI2Sy27h-jT-PUb-7" value="" style="group" vertex="1" connectable="0" parent="1">
          <mxGeometry x="-50" y="315" width="150" height="150" as="geometry" />
        </mxCell>
        <mxCell id="XKVxcPI2Sy27h-jT-PUb-4" value="" style="whiteSpace=wrap;html=1;aspect=fixed;" vertex="1" parent="XKVxcPI2Sy27h-jT-PUb-7">
          <mxGeometry width="150" height="150" as="geometry" />
        </mxCell>
        <mxCell id="Kyf35Kcozfyy5u9kXsoH-27" value="" style="shape=umlActor;verticalLabelPosition=bottom;verticalAlign=top;html=1;outlineConnect=0;" parent="XKVxcPI2Sy27h-jT-PUb-7" vertex="1">
          <mxGeometry x="65" y="25" width="30" height="60" as="geometry" />
        </mxCell>
        <mxCell id="XKVxcPI2Sy27h-jT-PUb-2" value="&lt;b&gt;Technician with&lt;br&gt;MRU at Reload Station &lt;br&gt;in queue&lt;/b&gt;" style="text;html=1;align=center;verticalAlign=middle;resizable=0;points=[];autosize=1;strokeColor=none;" vertex="1" parent="XKVxcPI2Sy27h-jT-PUb-7">
          <mxGeometry x="10" y="85" width="140" height="50" as="geometry" />
        </mxCell>
        <mxCell id="XKVxcPI2Sy27h-jT-PUb-12" value="" style="edgeStyle=orthogonalEdgeStyle;rounded=0;orthogonalLoop=1;jettySize=auto;html=1;" edge="1" parent="1" source="XKVxcPI2Sy27h-jT-PUb-8" target="XKVxcPI2Sy27h-jT-PUb-11">
          <mxGeometry relative="1" as="geometry">
            <Array as="points">
              <mxPoint x="630" y="230" />
            </Array>
          </mxGeometry>
        </mxCell>
        <mxCell id="XKVxcPI2Sy27h-jT-PUb-27" value="" style="edgeStyle=orthogonalEdgeStyle;rounded=0;orthogonalLoop=1;jettySize=auto;html=1;" edge="1" parent="1" source="XKVxcPI2Sy27h-jT-PUb-8" target="XKVxcPI2Sy27h-jT-PUb-18">
          <mxGeometry relative="1" as="geometry" />
        </mxCell>
        <mxCell id="XKVxcPI2Sy27h-jT-PUb-8" value="Parking Lane Identification" style="rhombus;whiteSpace=wrap;html=1;fillColor=#d5e8d4;strokeColor=#82b366;" vertex="1" parent="1">
          <mxGeometry x="590" y="350" width="80" height="80" as="geometry" />
        </mxCell>
        <mxCell id="XKVxcPI2Sy27h-jT-PUb-14" value="" style="edgeStyle=orthogonalEdgeStyle;rounded=0;orthogonalLoop=1;jettySize=auto;html=1;" edge="1" parent="1" source="XKVxcPI2Sy27h-jT-PUb-11" target="XKVxcPI2Sy27h-jT-PUb-13">
          <mxGeometry relative="1" as="geometry" />
        </mxCell>
        <mxCell id="XKVxcPI2Sy27h-jT-PUb-11" value="Not Proper" style="whiteSpace=wrap;html=1;strokeColor=#6c8ebf;fillColor=#dae8fc;" vertex="1" parent="1">
          <mxGeometry x="450" y="215" width="110" height="30" as="geometry" />
        </mxCell>
        <mxCell id="XKVxcPI2Sy27h-jT-PUb-15" style="edgeStyle=orthogonalEdgeStyle;rounded=0;orthogonalLoop=1;jettySize=auto;html=1;" edge="1" parent="1" source="XKVxcPI2Sy27h-jT-PUb-13" target="XKVxcPI2Sy27h-jT-PUb-4">
          <mxGeometry relative="1" as="geometry" />
        </mxCell>
        <mxCell id="XKVxcPI2Sy27h-jT-PUb-13" value="Technician Mobile Device App&amp;nbsp;" style="whiteSpace=wrap;html=1;strokeColor=#6c8ebf;fillColor=#dae8fc;" vertex="1" parent="1">
          <mxGeometry x="130" y="200" width="120" height="60" as="geometry" />
        </mxCell>
        <mxCell id="XKVxcPI2Sy27h-jT-PUb-16" value="Technicians Device" style="text;html=1;align=center;verticalAlign=middle;resizable=0;points=[];autosize=1;strokeColor=none;" vertex="1" parent="1">
          <mxGeometry x="-105" y="287" width="120" height="20" as="geometry" />
        </mxCell>
        <mxCell id="XKVxcPI2Sy27h-jT-PUb-17" value="Notification /Alert /&lt;br&gt;Lane Number to" style="text;html=1;align=center;verticalAlign=middle;resizable=0;points=[];autosize=1;strokeColor=none;" vertex="1" parent="1">
          <mxGeometry x="-100" y="260" width="110" height="30" as="geometry" />
        </mxCell>
        <mxCell id="XKVxcPI2Sy27h-jT-PUb-30" style="edgeStyle=orthogonalEdgeStyle;rounded=0;orthogonalLoop=1;jettySize=auto;html=1;entryX=1;entryY=0.75;entryDx=0;entryDy=0;" edge="1" parent="1" source="XKVxcPI2Sy27h-jT-PUb-18" target="XKVxcPI2Sy27h-jT-PUb-25">
          <mxGeometry relative="1" as="geometry" />
        </mxCell>
        <mxCell id="XKVxcPI2Sy27h-jT-PUb-18" value="Proper" style="whiteSpace=wrap;html=1;strokeColor=#6c8ebf;fillColor=#dae8fc;" vertex="1" parent="1">
          <mxGeometry x="585" y="460" width="90" height="40" as="geometry" />
        </mxCell>
        <mxCell id="XKVxcPI2Sy27h-jT-PUb-23" value="" style="edgeStyle=orthogonalEdgeStyle;rounded=0;orthogonalLoop=1;jettySize=auto;html=1;" edge="1" parent="1" source="XKVxcPI2Sy27h-jT-PUb-20" target="XKVxcPI2Sy27h-jT-PUb-22">
          <mxGeometry relative="1" as="geometry" />
        </mxCell>
        <mxCell id="XKVxcPI2Sy27h-jT-PUb-26" value="" style="edgeStyle=orthogonalEdgeStyle;rounded=0;orthogonalLoop=1;jettySize=auto;html=1;" edge="1" parent="1" source="XKVxcPI2Sy27h-jT-PUb-20" target="XKVxcPI2Sy27h-jT-PUb-25">
          <mxGeometry relative="1" as="geometry" />
        </mxCell>
        <mxCell id="XKVxcPI2Sy27h-jT-PUb-20" value="Number Plate Identification" style="whiteSpace=wrap;html=1;aspect=fixed;fillColor=#dae8fc;strokeColor=#6c8ebf;" vertex="1" parent="1">
          <mxGeometry x="400" y="355" width="70" height="70" as="geometry" />
        </mxCell>
        <mxCell id="XKVxcPI2Sy27h-jT-PUb-24" value="" style="edgeStyle=orthogonalEdgeStyle;rounded=0;orthogonalLoop=1;jettySize=auto;html=1;" edge="1" parent="1" source="XKVxcPI2Sy27h-jT-PUb-22" target="XKVxcPI2Sy27h-jT-PUb-8">
          <mxGeometry relative="1" as="geometry" />
        </mxCell>
        <mxCell id="XKVxcPI2Sy27h-jT-PUb-22" value="Tracking by DeepSort" style="whiteSpace=wrap;html=1;aspect=fixed;fillColor=#f8cecc;strokeColor=#b85450;" vertex="1" parent="1">
          <mxGeometry x="490" y="350" width="80" height="80" as="geometry" />
        </mxCell>
        <mxCell id="XKVxcPI2Sy27h-jT-PUb-29" value="" style="edgeStyle=orthogonalEdgeStyle;rounded=0;orthogonalLoop=1;jettySize=auto;html=1;" edge="1" parent="1" source="XKVxcPI2Sy27h-jT-PUb-25">
          <mxGeometry relative="1" as="geometry">
            <mxPoint x="260" y="510" as="targetPoint" />
          </mxGeometry>
        </mxCell>
        <mxCell id="XKVxcPI2Sy27h-jT-PUb-25" value="Resource Provisioning System&amp;nbsp;" style="whiteSpace=wrap;html=1;strokeColor=#6c8ebf;fillColor=#dae8fc;" vertex="1" parent="1">
          <mxGeometry x="320" y="480" width="120" height="60" as="geometry" />
        </mxCell>
        <mxCell id="XKVxcPI2Sy27h-jT-PUb-33" value="" style="edgeStyle=orthogonalEdgeStyle;rounded=0;orthogonalLoop=1;jettySize=auto;html=1;" edge="1" parent="1" source="XKVxcPI2Sy27h-jT-PUb-31" target="XKVxcPI2Sy27h-jT-PUb-32">
          <mxGeometry relative="1" as="geometry" />
        </mxCell>
        <mxCell id="XKVxcPI2Sy27h-jT-PUb-35" value="" style="edgeStyle=orthogonalEdgeStyle;rounded=0;orthogonalLoop=1;jettySize=auto;html=1;" edge="1" parent="1" source="XKVxcPI2Sy27h-jT-PUb-31" target="XKVxcPI2Sy27h-jT-PUb-34">
          <mxGeometry relative="1" as="geometry" />
        </mxCell>
        <mxCell id="XKVxcPI2Sy27h-jT-PUb-31" value="Resource Dispatch&amp;nbsp;" style="rhombus;whiteSpace=wrap;html=1;fillColor=#d5e8d4;strokeColor=#82b366;" vertex="1" parent="1">
          <mxGeometry x="180" y="470" width="80" height="80" as="geometry" />
        </mxCell>
        <mxCell id="XKVxcPI2Sy27h-jT-PUb-32" value="Not Done" style="whiteSpace=wrap;html=1;strokeColor=#82b366;fillColor=#d5e8d4;" vertex="1" parent="1">
          <mxGeometry x="180" y="610" width="80" height="30" as="geometry" />
        </mxCell>
        <mxCell id="XKVxcPI2Sy27h-jT-PUb-36" style="edgeStyle=orthogonalEdgeStyle;rounded=0;orthogonalLoop=1;jettySize=auto;html=1;" edge="1" parent="1" source="XKVxcPI2Sy27h-jT-PUb-34">
          <mxGeometry relative="1" as="geometry">
            <mxPoint x="20" y="460" as="targetPoint" />
            <Array as="points">
              <mxPoint x="20" y="510" />
            </Array>
          </mxGeometry>
        </mxCell>
        <mxCell id="XKVxcPI2Sy27h-jT-PUb-34" value="Done" style="whiteSpace=wrap;html=1;strokeColor=#82b366;fillColor=#d5e8d4;" vertex="1" parent="1">
          <mxGeometry x="80" y="490" width="70" height="40" as="geometry" />
        </mxCell>
        <mxCell id="XKVxcPI2Sy27h-jT-PUb-37" style="edgeStyle=orthogonalEdgeStyle;rounded=0;orthogonalLoop=1;jettySize=auto;html=1;exitX=0.5;exitY=1;exitDx=0;exitDy=0;" edge="1" parent="1" source="XKVxcPI2Sy27h-jT-PUb-4">
          <mxGeometry relative="1" as="geometry">
            <mxPoint x="20" y="470" as="targetPoint" />
          </mxGeometry>
        </mxCell>
        <mxCell id="XKVxcPI2Sy27h-jT-PUb-38" value="" style="endArrow=classic;html=1;exitX=0.25;exitY=1;exitDx=0;exitDy=0;" edge="1" parent="1" source="XKVxcPI2Sy27h-jT-PUb-4">
          <mxGeometry width="50" height="50" relative="1" as="geometry">
            <mxPoint x="170" y="470" as="sourcePoint" />
            <mxPoint x="-12" y="600" as="targetPoint" />
          </mxGeometry>
        </mxCell>
        <mxCell id="XKVxcPI2Sy27h-jT-PUb-39" value="Technician moves to the next Work Order Location" style="text;html=1;strokeColor=none;fillColor=none;align=center;verticalAlign=middle;whiteSpace=wrap;rounded=0;" vertex="1" parent="1">
          <mxGeometry x="-70" y="610" width="110" height="20" as="geometry" />
        </mxCell>
        <mxCell id="XKVxcPI2Sy27h-jT-PUb-40" value="" style="endArrow=none;html=1;" edge="1" parent="1">
          <mxGeometry width="50" height="50" relative="1" as="geometry">
            <mxPoint x="260" y="620" as="sourcePoint" />
            <mxPoint x="690" y="620" as="targetPoint" />
          </mxGeometry>
        </mxCell>
        <mxCell id="XKVxcPI2Sy27h-jT-PUb-41" value="" style="endArrow=none;html=1;" edge="1" parent="1">
          <mxGeometry width="50" height="50" relative="1" as="geometry">
            <mxPoint x="690" y="190" as="sourcePoint" />
            <mxPoint x="690" y="620" as="targetPoint" />
          </mxGeometry>
        </mxCell>
        <mxCell id="XKVxcPI2Sy27h-jT-PUb-42" value="" style="endArrow=none;html=1;" edge="1" parent="1">
          <mxGeometry width="50" height="50" relative="1" as="geometry">
            <mxPoint x="220" y="190" as="sourcePoint" />
            <mxPoint x="690" y="190" as="targetPoint" />
          </mxGeometry>
        </mxCell>
        <mxCell id="XKVxcPI2Sy27h-jT-PUb-44" value="" style="endArrow=classic;html=1;" edge="1" parent="1">
          <mxGeometry width="50" height="50" relative="1" as="geometry">
            <mxPoint x="220" y="190" as="sourcePoint" />
            <mxPoint x="220" y="200" as="targetPoint" />
          </mxGeometry>
        </mxCell>
        <mxCell id="XKVxcPI2Sy27h-jT-PUb-45" value="Next Guidelines are pushed (Moving out of the queue or to change station due to resource scarcity )" style="text;html=1;strokeColor=none;fillColor=none;align=center;verticalAlign=middle;whiteSpace=wrap;rounded=0;" vertex="1" parent="1">
          <mxGeometry x="270" y="160" width="340" height="20" as="geometry" />
        </mxCell>
        <mxCell id="XKVxcPI2Sy27h-jT-PUb-154" value="" style="edgeStyle=orthogonalEdgeStyle;rounded=0;orthogonalLoop=1;jettySize=auto;html=1;exitX=0.5;exitY=0;exitDx=0;exitDy=0;" edge="1" parent="1" source="FBqpnrmvN5RfIPoNUzqK-4" target="XKVxcPI2Sy27h-jT-PUb-153">
          <mxGeometry relative="1" as="geometry" />
        </mxCell>
        <mxCell id="XKVxcPI2Sy27h-jT-PUb-167" value="" style="edgeStyle=orthogonalEdgeStyle;rounded=0;orthogonalLoop=1;jettySize=auto;html=1;entryX=0;entryY=0.5;entryDx=0;entryDy=0;" edge="1" parent="1" source="XKVxcPI2Sy27h-jT-PUb-46" target="XKVxcPI2Sy27h-jT-PUb-20">
          <mxGeometry relative="1" as="geometry" />
        </mxCell>
        <mxCell id="XKVxcPI2Sy27h-jT-PUb-46" value="OCR Number Extraction&amp;nbsp;" style="whiteSpace=wrap;html=1;aspect=fixed;fillColor=#f8cecc;strokeColor=#b85450;" vertex="1" parent="1">
          <mxGeometry x="300" y="350" width="80" height="80" as="geometry" />
        </mxCell>
        <mxCell id="XKVxcPI2Sy27h-jT-PUb-156" value="" style="edgeStyle=orthogonalEdgeStyle;rounded=0;orthogonalLoop=1;jettySize=auto;html=1;entryX=-0.003;entryY=0.628;entryDx=0;entryDy=0;entryPerimeter=0;" edge="1" parent="1" source="XKVxcPI2Sy27h-jT-PUb-153" target="XKVxcPI2Sy27h-jT-PUb-157">
          <mxGeometry relative="1" as="geometry">
            <mxPoint x="410" y="305" as="targetPoint" />
          </mxGeometry>
        </mxCell>
        <mxCell id="XKVxcPI2Sy27h-jT-PUb-165" style="edgeStyle=orthogonalEdgeStyle;rounded=0;orthogonalLoop=1;jettySize=auto;html=1;entryX=0;entryY=0.5;entryDx=0;entryDy=0;" edge="1" parent="1" source="XKVxcPI2Sy27h-jT-PUb-153" target="XKVxcPI2Sy27h-jT-PUb-46">
          <mxGeometry relative="1" as="geometry">
            <Array as="points">
              <mxPoint x="278" y="310" />
              <mxPoint x="278" y="390" />
            </Array>
          </mxGeometry>
        </mxCell>
        <mxCell id="XKVxcPI2Sy27h-jT-PUb-153" value="&lt;font style=&quot;font-size: 10px&quot;&gt;Qualiity of Capture&lt;/font&gt;" style="rhombus;whiteSpace=wrap;html=1;fillColor=#d5e8d4;strokeColor=#82b366;" vertex="1" parent="1">
          <mxGeometry x="190" y="272" width="60" height="50" as="geometry" />
        </mxCell>
        <mxCell id="XKVxcPI2Sy27h-jT-PUb-164" value="" style="edgeStyle=orthogonalEdgeStyle;rounded=0;orthogonalLoop=1;jettySize=auto;html=1;" edge="1" parent="1" source="XKVxcPI2Sy27h-jT-PUb-157" target="XKVxcPI2Sy27h-jT-PUb-46">
          <mxGeometry relative="1" as="geometry" />
        </mxCell>
        <mxCell id="XKVxcPI2Sy27h-jT-PUb-157" value="ESR GAN&amp;nbsp;&lt;br&gt;Super Resolution" style="whiteSpace=wrap;html=1;aspect=fixed;fillColor=#f8cecc;strokeColor=#b85450;" vertex="1" parent="1">
          <mxGeometry x="310" y="237" width="70" height="70" as="geometry" />
        </mxCell>
        <mxCell id="XKVxcPI2Sy27h-jT-PUb-160" value="No" style="text;html=1;align=center;verticalAlign=middle;resizable=0;points=[];autosize=1;strokeColor=none;" vertex="1" parent="1">
          <mxGeometry x="275" y="262" width="30" height="20" as="geometry" />
        </mxCell>
        <mxCell id="XKVxcPI2Sy27h-jT-PUb-161" value="Yes" style="text;html=1;align=center;verticalAlign=middle;resizable=0;points=[];autosize=1;strokeColor=none;" vertex="1" parent="1">
          <mxGeometry x="270" y="390" width="40" height="20" as="geometry" />
        </mxCell>
      </root>
    </mxGraphModel>
  </diagram>
</mxfile>
